<svg width="83" height="31" viewBox="0 0 83 31" fill="none" xmlns="http://www.w3.org/2000/svg">
<path fill-rule="evenodd" clip-rule="evenodd" d="M81.2457 8.2355C71.8467 -2.54569 63.5535 0.218717 52.4959 7.40618C42.8205 13.7643 35.633 9.34126 28.4455 12.3821C26.7869 13.2114 24.2989 15.1465 26.5104 17.0816C27.6162 17.9109 32.0393 18.7403 33.4215 18.4638C40.8854 16.8052 43.0969 20.1225 54.431 17.9109C51.1137 20.3989 40.3325 18.7403 33.6979 19.5696C28.4455 20.6753 19.8759 16.5287 26.7869 11.8292C23.746 10.447 20.9816 9.6177 17.6643 9.34126C14.3471 6.8533 9.09468 3.81245 6.33027 2.70668C4.11874 1.32448 -1.41007 1.87736 2.18366 5.47109C5.77739 8.78838 15.4528 16.2523 17.3879 17.358C25.1282 22.0575 32.3157 25.3748 39.7796 29.5214C39.7796 29.5214 42.2676 30.9036 47.2435 28.9686C50.8372 27.3099 66.8708 18.4638 70.741 19.846C72.9525 20.6753 74.0583 21.2282 74.0583 21.2282L81.2457 8.2355Z" stroke="#333B41" stroke-width="1.5"/>
</svg>
